<mxfile host="Electron" modified="2024-06-22T09:31:38.505Z" agent="Mozilla/5.0 (Windows NT 10.0; Win64; x64) AppleWebKit/537.36 (KHTML, like Gecko) draw.io/24.6.1 Chrome/124.0.6367.207 Electron/30.0.6 Safari/537.36" etag="d52ZnId41rf7f5WtlzlX" version="24.6.1" type="device">
  <diagram name="Page-1" id="0HkFL03Iov9gtIH0iPZV">
    <mxGraphModel dx="1147" dy="675" grid="1" gridSize="10" guides="1" tooltips="1" connect="1" arrows="1" fold="1" page="1" pageScale="1" pageWidth="850" pageHeight="1100" math="0" shadow="0">
      <root>
        <mxCell id="0" />
        <mxCell id="1" parent="0" />
        <mxCell id="_O5Dfs0lPDWdnmjf4-tZ-5" style="edgeStyle=orthogonalEdgeStyle;rounded=0;orthogonalLoop=1;jettySize=auto;html=1;entryX=0;entryY=0.5;entryDx=0;entryDy=0;" edge="1" parent="1" source="_O5Dfs0lPDWdnmjf4-tZ-1" target="_O5Dfs0lPDWdnmjf4-tZ-2">
          <mxGeometry relative="1" as="geometry" />
        </mxCell>
        <mxCell id="_O5Dfs0lPDWdnmjf4-tZ-1" value="Requisiti" style="rounded=0;whiteSpace=wrap;html=1;" vertex="1" parent="1">
          <mxGeometry x="75" y="150" width="120" height="60" as="geometry" />
        </mxCell>
        <mxCell id="_O5Dfs0lPDWdnmjf4-tZ-6" style="edgeStyle=orthogonalEdgeStyle;rounded=0;orthogonalLoop=1;jettySize=auto;html=1;exitX=1;exitY=0.5;exitDx=0;exitDy=0;entryX=0;entryY=0.5;entryDx=0;entryDy=0;" edge="1" parent="1" source="_O5Dfs0lPDWdnmjf4-tZ-2" target="_O5Dfs0lPDWdnmjf4-tZ-3">
          <mxGeometry relative="1" as="geometry" />
        </mxCell>
        <mxCell id="_O5Dfs0lPDWdnmjf4-tZ-2" value="Progetttazione&lt;br&gt;UML" style="rounded=0;whiteSpace=wrap;html=1;" vertex="1" parent="1">
          <mxGeometry x="255" y="150" width="120" height="60" as="geometry" />
        </mxCell>
        <mxCell id="_O5Dfs0lPDWdnmjf4-tZ-7" style="edgeStyle=orthogonalEdgeStyle;rounded=0;orthogonalLoop=1;jettySize=auto;html=1;exitX=1;exitY=0.5;exitDx=0;exitDy=0;entryX=0;entryY=0.5;entryDx=0;entryDy=0;" edge="1" parent="1" source="_O5Dfs0lPDWdnmjf4-tZ-3" target="_O5Dfs0lPDWdnmjf4-tZ-4">
          <mxGeometry relative="1" as="geometry" />
        </mxCell>
        <mxCell id="_O5Dfs0lPDWdnmjf4-tZ-3" value="Scelta delle tecnologie" style="rounded=0;whiteSpace=wrap;html=1;" vertex="1" parent="1">
          <mxGeometry x="435" y="150" width="120" height="60" as="geometry" />
        </mxCell>
        <mxCell id="_O5Dfs0lPDWdnmjf4-tZ-4" value="Implementazione" style="rounded=0;whiteSpace=wrap;html=1;" vertex="1" parent="1">
          <mxGeometry x="625" y="150" width="120" height="60" as="geometry" />
        </mxCell>
        <mxCell id="_O5Dfs0lPDWdnmjf4-tZ-12" value="Progetto del preventivo" style="text;html=1;align=center;verticalAlign=middle;resizable=0;points=[];autosize=1;strokeColor=none;fillColor=none;fontSize=28;fontStyle=1" vertex="1" parent="1">
          <mxGeometry x="265" y="50" width="310" height="50" as="geometry" />
        </mxCell>
        <mxCell id="_O5Dfs0lPDWdnmjf4-tZ-13" value="&lt;h1 style=&quot;margin-top: 0px;&quot;&gt;Creazione automatizzata di un preventivo&lt;/h1&gt;&lt;p&gt;&lt;/p&gt;&lt;ul&gt;&lt;li&gt;Input File di esempio&lt;/li&gt;&lt;li&gt;Input prompt di modifica del preventivo&lt;/li&gt;&lt;li&gt;Input altri campi da definire (costo, mail, dati di progetto)&lt;/li&gt;&lt;/ul&gt;&lt;ul&gt;&lt;li&gt;Output un file che contiene il nuovo preventivo per il nuovo clinete&lt;/li&gt;&lt;/ul&gt;&lt;div&gt;Usabilità dell&#39;applicazione:&lt;/div&gt;&lt;ul&gt;&lt;li&gt;L&#39;aplicazione deve essere servita su una pagina web accessibile da più dispositivi contemporaneamente&lt;/li&gt;&lt;/ul&gt;&lt;div&gt;&lt;/div&gt;&lt;p&gt;&lt;/p&gt;" style="text;html=1;whiteSpace=wrap;overflow=hidden;rounded=0;" vertex="1" parent="1">
          <mxGeometry x="140" y="276" width="560" height="220" as="geometry" />
        </mxCell>
        <mxCell id="_O5Dfs0lPDWdnmjf4-tZ-19" style="edgeStyle=orthogonalEdgeStyle;rounded=0;orthogonalLoop=1;jettySize=auto;html=1;entryX=0;entryY=0.5;entryDx=0;entryDy=0;exitX=0.5;exitY=0.5;exitDx=0;exitDy=0;exitPerimeter=0;" edge="1" parent="1" source="_O5Dfs0lPDWdnmjf4-tZ-14" target="_O5Dfs0lPDWdnmjf4-tZ-16">
          <mxGeometry relative="1" as="geometry" />
        </mxCell>
        <mxCell id="_O5Dfs0lPDWdnmjf4-tZ-21" style="edgeStyle=orthogonalEdgeStyle;rounded=0;orthogonalLoop=1;jettySize=auto;html=1;exitX=0.5;exitY=0.5;exitDx=0;exitDy=0;exitPerimeter=0;entryX=0;entryY=0.5;entryDx=0;entryDy=0;" edge="1" parent="1" source="_O5Dfs0lPDWdnmjf4-tZ-14" target="_O5Dfs0lPDWdnmjf4-tZ-17">
          <mxGeometry relative="1" as="geometry" />
        </mxCell>
        <mxCell id="_O5Dfs0lPDWdnmjf4-tZ-14" value="Actor" style="shape=umlActor;verticalLabelPosition=bottom;verticalAlign=top;html=1;" vertex="1" parent="1">
          <mxGeometry x="80" y="601" width="30" height="60" as="geometry" />
        </mxCell>
        <mxCell id="_O5Dfs0lPDWdnmjf4-tZ-15" value="Openai" style="shape=umlActor;verticalLabelPosition=bottom;verticalAlign=top;html=1;" vertex="1" parent="1">
          <mxGeometry x="710" y="601" width="30" height="60" as="geometry" />
        </mxCell>
        <mxCell id="_O5Dfs0lPDWdnmjf4-tZ-22" style="edgeStyle=orthogonalEdgeStyle;rounded=0;orthogonalLoop=1;jettySize=auto;html=1;exitX=1;exitY=0.5;exitDx=0;exitDy=0;entryX=0;entryY=0.5;entryDx=0;entryDy=0;" edge="1" parent="1" source="_O5Dfs0lPDWdnmjf4-tZ-16" target="_O5Dfs0lPDWdnmjf4-tZ-18">
          <mxGeometry relative="1" as="geometry" />
        </mxCell>
        <mxCell id="_O5Dfs0lPDWdnmjf4-tZ-16" value="Creazione&lt;br&gt;preventivo&lt;br&gt;da prompt" style="ellipse;whiteSpace=wrap;html=1;" vertex="1" parent="1">
          <mxGeometry x="240" y="536" width="140" height="70" as="geometry" />
        </mxCell>
        <mxCell id="_O5Dfs0lPDWdnmjf4-tZ-23" style="edgeStyle=orthogonalEdgeStyle;rounded=0;orthogonalLoop=1;jettySize=auto;html=1;exitX=1;exitY=0.5;exitDx=0;exitDy=0;entryX=0;entryY=0.5;entryDx=0;entryDy=0;" edge="1" parent="1" source="_O5Dfs0lPDWdnmjf4-tZ-17" target="_O5Dfs0lPDWdnmjf4-tZ-18">
          <mxGeometry relative="1" as="geometry" />
        </mxCell>
        <mxCell id="_O5Dfs0lPDWdnmjf4-tZ-17" value="Creazione&lt;br&gt;preventivo&lt;br&gt;da prompt + dati aggiuntivi" style="ellipse;whiteSpace=wrap;html=1;" vertex="1" parent="1">
          <mxGeometry x="240" y="661" width="140" height="70" as="geometry" />
        </mxCell>
        <mxCell id="_O5Dfs0lPDWdnmjf4-tZ-18" value="Formattazione&lt;div&gt;del prompt&lt;/div&gt;" style="ellipse;whiteSpace=wrap;html=1;" vertex="1" parent="1">
          <mxGeometry x="465" y="596" width="140" height="70" as="geometry" />
        </mxCell>
        <mxCell id="_O5Dfs0lPDWdnmjf4-tZ-24" style="edgeStyle=orthogonalEdgeStyle;rounded=0;orthogonalLoop=1;jettySize=auto;html=1;exitX=1;exitY=0.5;exitDx=0;exitDy=0;entryX=0.5;entryY=0.5;entryDx=0;entryDy=0;entryPerimeter=0;" edge="1" parent="1" source="_O5Dfs0lPDWdnmjf4-tZ-18" target="_O5Dfs0lPDWdnmjf4-tZ-15">
          <mxGeometry relative="1" as="geometry" />
        </mxCell>
        <mxCell id="_O5Dfs0lPDWdnmjf4-tZ-25" value="Use Cases" style="text;align=center;fontStyle=1;verticalAlign=middle;spacingLeft=3;spacingRight=3;strokeColor=none;rotatable=0;points=[[0,0.5],[1,0.5]];portConstraint=eastwest;html=1;fontSize=17;" vertex="1" parent="1">
          <mxGeometry x="370" y="510" width="80" height="26" as="geometry" />
        </mxCell>
        <mxCell id="_O5Dfs0lPDWdnmjf4-tZ-26" value="Sequence Diagram" style="text;align=center;fontStyle=1;verticalAlign=middle;spacingLeft=3;spacingRight=3;strokeColor=none;rotatable=0;points=[[0,0.5],[1,0.5]];portConstraint=eastwest;html=1;fontSize=17;" vertex="1" parent="1">
          <mxGeometry x="370" y="790" width="80" height="26" as="geometry" />
        </mxCell>
        <mxCell id="_O5Dfs0lPDWdnmjf4-tZ-27" value="" style="shape=umlLifeline;perimeter=lifelinePerimeter;whiteSpace=wrap;html=1;container=1;dropTarget=0;collapsible=0;recursiveResize=0;outlineConnect=0;portConstraint=eastwest;newEdgeStyle={&quot;curved&quot;:0,&quot;rounded&quot;:0};participant=umlActor;" vertex="1" parent="1">
          <mxGeometry x="85" y="840" width="20" height="240" as="geometry" />
        </mxCell>
        <mxCell id="_O5Dfs0lPDWdnmjf4-tZ-28" value="Server" style="shape=umlLifeline;perimeter=lifelinePerimeter;whiteSpace=wrap;html=1;container=1;dropTarget=0;collapsible=0;recursiveResize=0;outlineConnect=0;portConstraint=eastwest;newEdgeStyle={&quot;curved&quot;:0,&quot;rounded&quot;:0};" vertex="1" parent="1">
          <mxGeometry x="370" y="840" width="100" height="240" as="geometry" />
        </mxCell>
        <mxCell id="_O5Dfs0lPDWdnmjf4-tZ-32" value="" style="html=1;points=[[0,0,0,0,5],[0,1,0,0,-5],[1,0,0,0,5],[1,1,0,0,-5]];perimeter=orthogonalPerimeter;outlineConnect=0;targetShapes=umlLifeline;portConstraint=eastwest;newEdgeStyle={&quot;curved&quot;:0,&quot;rounded&quot;:0};" vertex="1" parent="_O5Dfs0lPDWdnmjf4-tZ-28">
          <mxGeometry x="45" y="90" width="10" height="40" as="geometry" />
        </mxCell>
        <mxCell id="_O5Dfs0lPDWdnmjf4-tZ-33" value="Prompting" style="html=1;align=left;spacingLeft=2;endArrow=block;rounded=0;edgeStyle=orthogonalEdgeStyle;curved=0;rounded=0;entryX=1;entryY=0;entryDx=0;entryDy=5;entryPerimeter=0;" edge="1" target="_O5Dfs0lPDWdnmjf4-tZ-32" parent="_O5Dfs0lPDWdnmjf4-tZ-28" source="_O5Dfs0lPDWdnmjf4-tZ-35">
          <mxGeometry x="-0.1766" relative="1" as="geometry">
            <mxPoint x="60" y="70" as="sourcePoint" />
            <Array as="points">
              <mxPoint x="80" y="70" />
              <mxPoint x="80" y="100" />
              <mxPoint x="70" y="100" />
              <mxPoint x="70" y="95" />
            </Array>
            <mxPoint x="190" y="50" as="targetPoint" />
            <mxPoint as="offset" />
          </mxGeometry>
        </mxCell>
        <mxCell id="_O5Dfs0lPDWdnmjf4-tZ-35" value="" style="html=1;points=[[0,0,0,0,5],[0,1,0,0,-5],[1,0,0,0,5],[1,1,0,0,-5]];perimeter=orthogonalPerimeter;outlineConnect=0;targetShapes=umlLifeline;portConstraint=eastwest;newEdgeStyle={&quot;curved&quot;:0,&quot;rounded&quot;:0};" vertex="1" parent="_O5Dfs0lPDWdnmjf4-tZ-28">
          <mxGeometry x="45" y="60" width="10" height="20" as="geometry" />
        </mxCell>
        <mxCell id="_O5Dfs0lPDWdnmjf4-tZ-38" value="" style="html=1;points=[[0,0,0,0,5],[0,1,0,0,-5],[1,0,0,0,5],[1,1,0,0,-5]];perimeter=orthogonalPerimeter;outlineConnect=0;targetShapes=umlLifeline;portConstraint=eastwest;newEdgeStyle={&quot;curved&quot;:0,&quot;rounded&quot;:0};" vertex="1" parent="_O5Dfs0lPDWdnmjf4-tZ-28">
          <mxGeometry x="45" y="140" width="10" height="30" as="geometry" />
        </mxCell>
        <mxCell id="_O5Dfs0lPDWdnmjf4-tZ-30" value="" style="shape=umlLifeline;perimeter=lifelinePerimeter;whiteSpace=wrap;html=1;container=1;dropTarget=0;collapsible=0;recursiveResize=0;outlineConnect=0;portConstraint=eastwest;newEdgeStyle={&quot;curved&quot;:0,&quot;rounded&quot;:0};participant=umlActor;" vertex="1" parent="1">
          <mxGeometry x="705" y="840" width="20" height="240" as="geometry" />
        </mxCell>
        <mxCell id="_O5Dfs0lPDWdnmjf4-tZ-36" value="" style="html=1;points=[[0,0,0,0,5],[0,1,0,0,-5],[1,0,0,0,5],[1,1,0,0,-5]];perimeter=orthogonalPerimeter;outlineConnect=0;targetShapes=umlLifeline;portConstraint=eastwest;newEdgeStyle={&quot;curved&quot;:0,&quot;rounded&quot;:0};" vertex="1" parent="_O5Dfs0lPDWdnmjf4-tZ-30">
          <mxGeometry x="5" y="110" width="10" height="40" as="geometry" />
        </mxCell>
        <mxCell id="_O5Dfs0lPDWdnmjf4-tZ-31" value="Richiesta Nuovo Preventivo" style="html=1;verticalAlign=bottom;startArrow=oval;startFill=1;endArrow=block;startSize=8;curved=0;rounded=0;" edge="1" parent="1" source="_O5Dfs0lPDWdnmjf4-tZ-27" target="_O5Dfs0lPDWdnmjf4-tZ-35">
          <mxGeometry width="60" relative="1" as="geometry">
            <mxPoint x="100" y="910" as="sourcePoint" />
            <mxPoint x="160" y="910" as="targetPoint" />
            <Array as="points">
              <mxPoint x="260" y="910" />
            </Array>
          </mxGeometry>
        </mxCell>
        <mxCell id="_O5Dfs0lPDWdnmjf4-tZ-34" value="Richiesta Api" style="html=1;verticalAlign=bottom;endArrow=block;curved=0;rounded=0;exitX=1;exitY=1;exitDx=0;exitDy=-5;exitPerimeter=0;" edge="1" parent="1" source="_O5Dfs0lPDWdnmjf4-tZ-32" target="_O5Dfs0lPDWdnmjf4-tZ-36">
          <mxGeometry width="80" relative="1" as="geometry">
            <mxPoint x="450" y="970" as="sourcePoint" />
            <mxPoint x="530" y="970" as="targetPoint" />
          </mxGeometry>
        </mxCell>
        <mxCell id="_O5Dfs0lPDWdnmjf4-tZ-37" value="return" style="html=1;verticalAlign=bottom;endArrow=open;dashed=1;endSize=8;curved=0;rounded=0;exitX=0;exitY=1;exitDx=0;exitDy=-5;exitPerimeter=0;entryX=1;entryY=0;entryDx=0;entryDy=5;entryPerimeter=0;" edge="1" parent="1" source="_O5Dfs0lPDWdnmjf4-tZ-36" target="_O5Dfs0lPDWdnmjf4-tZ-38">
          <mxGeometry relative="1" as="geometry">
            <mxPoint x="670" y="1060" as="sourcePoint" />
            <mxPoint x="590" y="1060" as="targetPoint" />
          </mxGeometry>
        </mxCell>
        <mxCell id="_O5Dfs0lPDWdnmjf4-tZ-39" value="return" style="html=1;verticalAlign=bottom;endArrow=open;dashed=1;endSize=8;curved=0;rounded=0;exitX=0;exitY=1;exitDx=0;exitDy=-5;exitPerimeter=0;" edge="1" parent="1" source="_O5Dfs0lPDWdnmjf4-tZ-38" target="_O5Dfs0lPDWdnmjf4-tZ-27">
          <mxGeometry relative="1" as="geometry">
            <mxPoint x="400" y="1035" as="sourcePoint" />
            <mxPoint x="110" y="1035" as="targetPoint" />
          </mxGeometry>
        </mxCell>
        <mxCell id="_O5Dfs0lPDWdnmjf4-tZ-40" value="Class Diagram" style="text;align=center;fontStyle=1;verticalAlign=middle;spacingLeft=3;spacingRight=3;strokeColor=none;rotatable=0;points=[[0,0.5],[1,0.5]];portConstraint=eastwest;html=1;fontSize=17;" vertex="1" parent="1">
          <mxGeometry x="380" y="1160" width="80" height="26" as="geometry" />
        </mxCell>
        <mxCell id="_O5Dfs0lPDWdnmjf4-tZ-41" value="App" style="swimlane;fontStyle=1;align=center;verticalAlign=top;childLayout=stackLayout;horizontal=1;startSize=26;horizontalStack=0;resizeParent=1;resizeParentMax=0;resizeLast=0;collapsible=1;marginBottom=0;whiteSpace=wrap;html=1;" vertex="1" parent="1">
          <mxGeometry x="195" y="1250" width="160" height="86" as="geometry" />
        </mxCell>
        <mxCell id="_O5Dfs0lPDWdnmjf4-tZ-43" value="" style="line;strokeWidth=1;fillColor=none;align=left;verticalAlign=middle;spacingTop=-1;spacingLeft=3;spacingRight=3;rotatable=0;labelPosition=right;points=[];portConstraint=eastwest;strokeColor=inherit;" vertex="1" parent="_O5Dfs0lPDWdnmjf4-tZ-41">
          <mxGeometry y="26" width="160" height="8" as="geometry" />
        </mxCell>
        <mxCell id="_O5Dfs0lPDWdnmjf4-tZ-44" value="+ website(): html" style="text;strokeColor=none;fillColor=none;align=left;verticalAlign=top;spacingLeft=4;spacingRight=4;overflow=hidden;rotatable=0;points=[[0,0.5],[1,0.5]];portConstraint=eastwest;whiteSpace=wrap;html=1;" vertex="1" parent="_O5Dfs0lPDWdnmjf4-tZ-41">
          <mxGeometry y="34" width="160" height="26" as="geometry" />
        </mxCell>
        <mxCell id="_O5Dfs0lPDWdnmjf4-tZ-49" value="+ modifiy-quote(form): file" style="text;align=left;verticalAlign=top;spacingLeft=4;spacingRight=4;overflow=hidden;rotatable=0;points=[[0,0.5],[1,0.5]];portConstraint=eastwest;whiteSpace=wrap;html=1;" vertex="1" parent="_O5Dfs0lPDWdnmjf4-tZ-41">
          <mxGeometry y="60" width="160" height="26" as="geometry" />
        </mxCell>
        <mxCell id="_O5Dfs0lPDWdnmjf4-tZ-45" value="Model" style="swimlane;fontStyle=1;align=center;verticalAlign=top;childLayout=stackLayout;horizontal=1;startSize=26;horizontalStack=0;resizeParent=1;resizeParentMax=0;resizeLast=0;collapsible=1;marginBottom=0;whiteSpace=wrap;html=1;" vertex="1" parent="1">
          <mxGeometry x="475" y="1210" width="205" height="60" as="geometry" />
        </mxCell>
        <mxCell id="_O5Dfs0lPDWdnmjf4-tZ-47" value="" style="line;strokeWidth=1;fillColor=none;align=left;verticalAlign=middle;spacingTop=-1;spacingLeft=3;spacingRight=3;rotatable=0;labelPosition=right;points=[];portConstraint=eastwest;strokeColor=inherit;" vertex="1" parent="_O5Dfs0lPDWdnmjf4-tZ-45">
          <mxGeometry y="26" width="205" height="8" as="geometry" />
        </mxCell>
        <mxCell id="_O5Dfs0lPDWdnmjf4-tZ-48" value="+ compute(prompt, token): result" style="text;strokeColor=none;fillColor=none;align=left;verticalAlign=top;spacingLeft=4;spacingRight=4;overflow=hidden;rotatable=0;points=[[0,0.5],[1,0.5]];portConstraint=eastwest;whiteSpace=wrap;html=1;" vertex="1" parent="_O5Dfs0lPDWdnmjf4-tZ-45">
          <mxGeometry y="34" width="205" height="26" as="geometry" />
        </mxCell>
        <mxCell id="_O5Dfs0lPDWdnmjf4-tZ-50" style="edgeStyle=orthogonalEdgeStyle;rounded=0;orthogonalLoop=1;jettySize=auto;html=1;exitX=1;exitY=0.5;exitDx=0;exitDy=0;entryX=0;entryY=0.5;entryDx=0;entryDy=0;" edge="1" parent="1" source="_O5Dfs0lPDWdnmjf4-tZ-49" target="_O5Dfs0lPDWdnmjf4-tZ-48">
          <mxGeometry relative="1" as="geometry" />
        </mxCell>
        <mxCell id="_O5Dfs0lPDWdnmjf4-tZ-51" value="&lt;h1 style=&quot;margin-top: 0px;&quot;&gt;Teck stack for the project&lt;/h1&gt;&lt;div&gt;Scelta delle tecnologie sulla base dei requisiti di usabilità e tecnici&lt;/div&gt;&lt;div&gt;&lt;ul&gt;&lt;li&gt;web server, scalabile, in un linguaggio di facile sviluppo (fastapi)&lt;/li&gt;&lt;li&gt;api per openai (libreria python di openai)&lt;/li&gt;&lt;li&gt;framework frontend per rendere belle le cose (bootstrap)&lt;/li&gt;&lt;/ul&gt;&lt;/div&gt;" style="text;html=1;whiteSpace=wrap;overflow=hidden;rounded=0;" vertex="1" parent="1">
          <mxGeometry x="75" y="1440" width="700" height="130" as="geometry" />
        </mxCell>
        <mxCell id="_O5Dfs0lPDWdnmjf4-tZ-52" value="Development" style="text;align=center;fontStyle=1;verticalAlign=middle;spacingLeft=3;spacingRight=3;strokeColor=none;rotatable=0;points=[[0,0.5],[1,0.5]];portConstraint=eastwest;html=1;fontSize=17;" vertex="1" parent="1">
          <mxGeometry x="365" y="1640" width="80" height="26" as="geometry" />
        </mxCell>
        <mxCell id="_O5Dfs0lPDWdnmjf4-tZ-53" value="Requisiti" style="text;align=center;fontStyle=1;verticalAlign=middle;spacingLeft=3;spacingRight=3;strokeColor=none;rotatable=0;points=[[0,0.5],[1,0.5]];portConstraint=eastwest;html=1;fontSize=17;" vertex="1" parent="1">
          <mxGeometry x="365" y="250" width="80" height="26" as="geometry" />
        </mxCell>
      </root>
    </mxGraphModel>
  </diagram>
</mxfile>
